<?xml version="1.0" encoding="UTF-8"?>
<svg xmlns="http://www.w3.org/2000/svg" xmlns:xlink="http://www.w3.org/1999/xlink" width="72px" height="72px" viewBox="0 0 72 72" version="1.1">
<g id="surface1">
<path style=" stroke:none;fill-rule:nonzero;fill:rgb(0%,0%,0%);fill-opacity:1;" d="M 63.207031 11.558594 L 8.792969 11.558594 C 3.945312 11.558594 0 15.503906 0 20.355469 L 0 51.644531 C 0 56.496094 3.945312 60.441406 8.792969 60.441406 L 63.207031 60.441406 C 68.054688 60.441406 72 56.496094 72 51.644531 L 72 20.355469 C 72 15.503906 68.054688 11.558594 63.207031 11.558594 Z M 58.90625 17.296875 L 36 32.054688 L 13.09375 17.296875 Z M 63.207031 54.703125 L 8.792969 54.703125 C 7.109375 54.703125 5.738281 53.332031 5.738281 51.644531 L 5.738281 20.519531 L 34.230469 38.839844 C 34.269531 38.863281 34.308594 38.878906 34.347656 38.902344 C 34.390625 38.925781 34.433594 38.945312 34.472656 38.96875 C 34.695312 39.082031 34.921875 39.171875 35.15625 39.234375 C 35.179688 39.242188 35.203125 39.242188 35.226562 39.25 C 35.480469 39.308594 35.738281 39.347656 36 39.347656 C 36 39.347656 36.003906 39.347656 36.003906 39.347656 C 36.261719 39.347656 36.519531 39.308594 36.777344 39.25 C 36.800781 39.242188 36.824219 39.242188 36.847656 39.234375 C 37.078125 39.171875 37.304688 39.082031 37.527344 38.96875 C 37.570312 38.945312 37.613281 38.925781 37.652344 38.902344 C 37.691406 38.878906 37.734375 38.863281 37.773438 38.839844 L 66.265625 20.519531 L 66.265625 51.644531 C 66.261719 53.332031 64.890625 54.703125 63.207031 54.703125 Z M 63.207031 54.703125 "/>
</g>
</svg>
