<?xml version="1.0" encoding="UTF-8"?>
<svg xmlns="http://www.w3.org/2000/svg" xmlns:xlink="http://www.w3.org/1999/xlink" width="72px" height="72px" viewBox="0 0 72 72" version="1.1">
<g id="surface1">
<path style="fill:none;stroke-width:12;stroke-linecap:round;stroke-linejoin:round;stroke:rgb(0%,0%,0%);stroke-opacity:1;stroke-miterlimit:4;" d="M 120.75 170 C 120.78125 165.333333 120.8125 149.125 120.8125 142.708333 C 120.8125 133.4375 117.645833 127.375 114.09375 124.302083 C 136.145833 121.833333 159.291667 113.4375 159.291667 75.229167 C 159.291667 64.375 155.46875 55.5 149.125 48.552083 C 150.135417 46.03125 153.53125 35.916667 148.135417 22.229167 C 148.135417 22.229167 139.833333 19.5625 120.927083 32.4375 C 113.020833 30.21875 104.5625 29.125 96.145833 29.083333 C 87.729167 29.125 79.270833 30.21875 71.364583 32.4375 C 52.458333 19.5625 44.166667 22.229167 44.166667 22.229167 C 38.760417 35.916667 42.15625 46.03125 43.177083 48.552083 C 36.822917 55.5 33 64.375 33 75.229167 C 33 113.4375 56.145833 121.833333 78.197917 124.302083 C 74.645833 127.375 71.479167 133.4375 71.479167 142.708333 C 71.479167 149.125 71.510417 165.333333 71.541667 170 M 27 130 C 36.9375 130.697917 42.666667 139.739583 42.666667 139.739583 C 51.5 154.9375 65.84375 150.541667 71.489583 148 " transform="matrix(0.375,0,0,0.375,0,0)"/>
</g>
</svg>
